/* XPM */
static char *aarena[] = {
/* columns rows colors chars-per-pixel */
"32 32 13 1 ",
"  c #DBC093",
". c #DBC296",
"X c #DBC398",
"o c #DCC399",
"O c #DBC499",
"+ c #DCC499",
"@ c #DECDA7",
"# c #DFCEA8",
"$ c #DFD0AB",
"% c #E0D0AB",
"& c #E0D1AD",
"* c #E1D3B0",
"= c #E1D4B0",
/* pixels */
"..X.+$&&&&&&&%o.......+%&&&%+...",
"......+%&&&&&*%+.......+%&&*%...",
".......X.+%*&&*%+.......+&&&&+..",
"..........+%*&&*%........$&&&&X.",
"...........+%&&&&+.......+&&&&X.",
"............+&&&&%........%&&&+.",
"......X&&....%*&&&+.......+&&&%.",
"......X&&X...+%*&&%+.......$&&&+",
"+........o#o..+%&&&%+.....o+%&&%",
"&$+.X.....o....+%&&&%+...+#.X&*&",
"**&&$+.o#o......+%&&&&$+..+. X$&",
"&&*=*&$+.........+%&&&*%+...X.+%",
".+$&&*=$X.........+%*&&*%+ X&&..",
"..X.+$&*&+......+..+%*&&*&X.&&X.",
"......+%*%+....o#X..+%*&&*$+....",
".......+&=$.....oo...+%*&&*%X...",
"..o.....$=&+.....#o...+%*&&*%...",
".o#o....+%*%+....o.....+%&&&&+..",
"..o......+&=%+......... +&&&&%..",
"..........+&*&$+......X..%&&&&+.",
"...........+%==%o.....&&.+&&&&%.",
"............+$&*&o...X&&..%*&&&+",
".......X&&....+%*%+...X+..+%&&&%",
"+......X&&.....+&=$....@o..+&&&&",
"%+..............$*&+...+....&&&&",
"*%+.............+&*$.......X%*&&",
"&*%+.............$=&+.......+%*&",
"&&*%+............+%*%+.......+%*",
"&&&&&%+.XXX.....o.X$=%+.......+%",
"%*&&&&&&&&%+...o#O.+$*&%+......+",
"+%*&&&&*&&*%+....o#.X%*&&%+.....",
".+&&&&&&&&&*%o....o..+%&&*%o...."
};
