/* XPM */
static char *char[] = {
/* columns rows colors chars-per-pixel */
"32 32 67 1 ",
"  c black",
". c #010509",
"X c #200D0C",
"o c #2C241F",
"O c #1D2425",
"+ c #262828",
"@ c #353535",
"# c gray22",
"$ c #3F3F3F",
"% c #7D0000",
"& c #791207",
"* c #7F160C",
"= c #5D2825",
"- c #4F3D2D",
"; c #7E521C",
": c gray26",
"> c gray28",
", c #494343",
"< c #4A4646",
"1 c #4D4947",
"2 c #494948",
"3 c #5A544F",
"4 c gray32",
"5 c #5A5A59",
"6 c #674441",
"7 c #684442",
"8 c #645C56",
"9 c #686868",
"0 c #801C14",
"q c #81221B",
"w c #823531",
"e c #843430",
"r c #853834",
"t c #873E3B",
"y c #873F3C",
"u c #835620",
"i c #855B2F",
"p c #895D2E",
"a c #88423F",
"s c #895D31",
"d c #89623F",
"f c #874542",
"g c #884543",
"h c #8A4745",
"j c #8A4845",
"k c #8E5351",
"l c #8F5B59",
"z c #905957",
"x c #925B5A",
"c c #925D5A",
"v c #8A6340",
"b c #8D6642",
"n c #8F6B4E",
"m c #90694A",
"M c #997A61",
"N c #9B7C66",
"B c #9C7D66",
"V c #D5D5D5",
"C c #DAD9D8",
"Z c #DFDEDE",
"A c #E0DDDC",
"S c #E1E2E2",
"D c #E4E1E1",
"F c #E6E6E6",
"G c #E8E6E6",
"H c #E9E9E8",
"J c #ECECEC",
/* pixels */
"JJJJJJJJJJJJJJJJJJJJJJJJJJJJJJJJ",
"JJJJJJJJJJJJJJJJJJJJJJJJJJJJJJJJ",
"JJJJJJJJJJJJJJJJJJJJJJJJJJJJJJJJ",
"JJJJJJJJJJJJJJJFFJJJJJJJJJJJJJJJ",
"JJJJJJJJJJJJJJS33SJJJJJJJJJJJJJJ",
"JJJJJJJJJJJJJF8;uMGJJJJJJJJJJJJJ",
"JJJJJJJJJJJJJFvppbFJJJJJJJJJJJJJ",
"JJJJJJJJJJJJJHBsiNHJJJJJJJJJJJJJ",
"JJJJJJJJJJJJHHAd-ZHHJJJJJJJJJJJJ",
"JJJJJJJJJJJJHl7nn6xHJJJJJJJJJJJJ",
"JJJJJJJJJJJJDw=CC=wDJJJJJJJJJJJJ",
"JJJJJJJJJJJHx%gZZg%xHJJJJJJJJJJJ",
"JJJJJJJJJJJDy%gZZg%yDJJJJJJJJJJJ",
"JJJJJJJJJJGxq*aZZa*qxGJJJJJJJJJJ",
"JJJJJJJJJJHa%*aZZa*%aHJJJJJJJJJJ",
"JJJJJJJJJJDjt0aZZa0tjDJJJJJJJJJJ",
"JJJJJJJJJGkjAgrZZrgAjkGJJJJJJJJJ",
"JJJJJJJJJGeaDhrAArhDaeGJJJJJJJJJ",
"JJJJJJJJJGazDheCCehDzaGJJJJJJJJJ",
"JJJJJJJJJFzDHf&<<&fHDzFJJJJJJJJJ",
"JJJJJJJJJFcDS,X  X,SDcFJJJJJJJJJ",
"JJJJJJJJJGmd1O+>>+O1dmGJJJJJJJJJ",
"JJJJJJJJJGMdo.$SS$.odMGJJJJJJJJJ",
"JJJJJJJJJHHD2 5HH5 2DHHJJJJJJJJJ",
"JJJJJJJJJJJS$@SJJS@$SJJJJJJJJJJJ",
"JJJJJJJJJJF5 5HJJH5 5FJJJJJJJJJJ",
"JJJJJJJJJJF#$SJJJJS$#FJJJJJJJJJJ",
"JJJJJJJJJJF:$HJJJJH$:FJJJJJJJJJJ",
"JJJJJJJJJJF#:FJJJJF:#FJJJJJJJJJJ",
"JJJJJJJJJJF4#FJJJJF#4FJJJJJJJJJJ",
"JJJJJJJJJHSV9FJJJJF9VSHJJJJJJJJJ",
"JJJJJJJJHSSSFJJJJJJFSSSHJJJJJJJJ"
};
