/* XPM */
static char *_1d0639a704f4ed6e1f370c817c627320cyc85zXayUkfbBt[] = {
/* columns rows colors chars-per-pixel */
"12 28 90 1 ",
"  c black",
". c #010509",
"X c #200D0C",
"o c #2C241F",
"O c #1D2425",
"+ c #262828",
"@ c #353535",
"# c gray22",
"$ c #3C3C3C",
"% c #3D3C3C",
"& c gray24",
"* c #3F3F3F",
"= c #7C0000",
"- c #7D0000",
"; c #791207",
": c #7F160C",
"> c #5D2825",
", c #4F3D2D",
"< c #7E521C",
"1 c gray25",
"2 c gray26",
"3 c gray28",
"4 c #494343",
"5 c #4A4646",
"6 c #4D4947",
"7 c #494948",
"8 c #5A544F",
"9 c gray32",
"0 c #5A5A59",
"q c #5B5B5B",
"w c #674441",
"e c #684442",
"r c #645C56",
"t c #686868",
"y c #801C14",
"u c #81221B",
"i c #823531",
"p c #843430",
"a c #853633",
"s c #853835",
"d c #873F3C",
"f c #835620",
"g c #855B2F",
"h c #8B5E2E",
"j c #88413E",
"k c #88413F",
"l c #895D31",
"z c #89623F",
"x c #8A623F",
"c c #874542",
"v c #894441",
"b c #894543",
"n c #8B4744",
"m c #8A4845",
"M c #8E5351",
"N c #8F5B59",
"B c #905957",
"V c #915A58",
"C c #905B5A",
"Z c #925B5A",
"A c #925D5A",
"S c #8A6340",
"D c #8D6642",
"F c #8C694D",
"G c #8F6B4E",
"H c #90694A",
"J c #987961",
"K c #997A61",
"L c #9B7C66",
"P c #9C7D66",
"I c #D5D5D5",
"U c #D9D8D8",
"Y c #DAD9D8",
"T c #DDDCDC",
"R c #DFDEDE",
"E c #E0DCDC",
"W c #E0DDDC",
"Q c #E1E2E2",
"! c gray89",
"~ c #E4E1E1",
"^ c #E4E3E3",
"/ c #E5E3E3",
"( c #E7E7E7",
") c #E8E6E6",
"_ c gray91",
"` c #E9E8E8",
"' c #EAE9E9",
"] c gray92",
"[ c #ECECEC",
"{ c #EEEEEF",
/* pixels */
"[[[[[(([[[[[",
"[[[[Q88Q[[[[",
"[[[_r<fJ_[[[",
"[[[(ShlD)[[[",
"[[[]PlgL_[[[",
"[[__WS,T_[[[",
"[[_NeHGeA_{[",
"[[/a>YY>a![[",
"[)Z=cRRc=A)[",
"[Qd=vTRc=d/]",
")Zu:jRRjyuB)",
"_j=:jRRjy=d)",
"/mdynRRjydn~",
"MnTnsWTanEnM",
"ad/naTQan~ja",
"jB~naUUan~Bj",
"B/_n;55;c_/Z",
"Z~/4X  X4Q/Z",
"Hx6O+33+O6DH",
"Jxo.&QQ&.oSJ",
"_Q7 0]_0 7/_",
"[/&@Q][Q@&/[",
"_0 0][[]0 0(",
")&&)][[]Q&#(",
")2&_{[[{]&2_",
"_@&_[[[{_2#)",
"_9&_{[[[(#9(",
"QItQ[[[[/tI!"
};
