/* XPM */
static char *_f5108c146ce484bc2c0325dfc3c9c2brw6gsL6q5FZ4HARs[] = {
/* columns rows colors chars-per-pixel */
"12 14 100 2 ",
"   c #AD811D",
".  c #BC912A",
"X  c #B28D37",
"o  c #BB9439",
"O  c #C88907",
"+  c #CB8C07",
"@  c #C88E0E",
"#  c #C89216",
"$  c #CE9614",
"%  c #CB9618",
"&  c #D49C1B",
"*  c #F2AD0F",
"=  c #F5AE0F",
"-  c #E7A613",
";  c #E5A614",
":  c #E6A615",
">  c #E7A814",
",  c #E6A815",
"<  c #F2AF11",
"1  c #F5B112",
"2  c #C99824",
"3  c #C4992E",
"4  c #CD9C28",
"5  c #D19D24",
"6  c #DAA92F",
"7  c #CEA031",
"8  c #CEA336",
"9  c #CAA23E",
"0  c #D8A933",
"q  c #D2A73B",
"w  c #D4A839",
"e  c #EDB220",
"r  c #EEB629",
"t  c #EFBA31",
"y  c #E7B73A",
"u  c #E6B73B",
"i  c #EAB83A",
"p  c #EAB93A",
"a  c #F0BD35",
"s  c #F4C13E",
"d  c #BC9943",
"f  c #BA9A4C",
"g  c #BC9C4F",
"h  c #BB9C50",
"j  c #CBA341",
"k  c #D3AB45",
"l  c #D1AB49",
"z  c #D7B150",
"x  c #E8BA41",
"c  c #E8BC46",
"v  c #E6BC49",
"b  c #CBAE64",
"n  c #CCB16A",
"m  c #CCB36F",
"M  c #D1B364",
"N  c #CEB677",
"B  c #CBB47A",
"V  c #D4BA74",
"C  c #DABF72",
"Z  c #D4BC7F",
"A  c #F8C540",
"S  c #F4C649",
"D  c #F2C54D",
"F  c #F5C94E",
"G  c #F3D06C",
"H  c #EECF7C",
"J  c #F4D47B",
"K  c #CDB781",
"L  c #D0BD8B",
"P  c #D8C592",
"I  c #D8C593",
"U  c #D8C594",
"Y  c #D5C499",
"T  c #D7C9A1",
"R  c #DBCFAC",
"E  c #DBCFAD",
"W  c #DCD0B0",
"Q  c #DCD1B2",
"!  c #DED4B9",
"~  c #DED4BA",
"^  c #E0D6BD",
"/  c #F2E0AA",
"(  c #FAEABB",
")  c #FCEDBF",
"_  c #E5DECB",
"`  c #E5DECD",
"'  c #ECE3CB",
"]  c #EFE5CE",
"[  c #E6E0D1",
"{  c #E7E2D1",
"}  c #EFE7D1",
"|  c #EFEEEB",
" . c #EDEDEC",
".. c #EFEFED",
"X. c #EFEFEF",
"o. c #F5F1E6",
"O. c #F0F0EF",
"+. c gray94",
"@. c #FCFBFA",
"#. c white",
/* pixels */
"X.+.+.[ T T T ~ O.O.O.O.",
"O.X.L g N C 0 q n { O.O.",
"| K d ] } V 5 , i M [ +.",
"Q   v H P ' ' z , y N O.",
"h 3 t % / #.#.o.7 t l ~ ",
"X 8 a @ F ) #.#.j i k R ",
"X 8 a O * F ) @.9 G V E ",
"X 8 a @ < = S ( 9 J U E ",
"X 8 a # s 1 1 S 2 J U E ",
"f 3 t + r s 1 e $ D Z ~ ",
"E   y - & c x & : x m X.",
"| B . i - $ $ - y z _ X.",
"X.| K o 4 6 6 w b [ +.+.",
"X.+.+.` Y Y Y Q X.+.X.X."
};
