/* XPM */
static char *_eb98a8af4e7444dd98c19cf174c638dLpOHuAFL2LC2oDCU[] = {
/* columns rows colors chars-per-pixel */
"16 16 2 1 ",
"  c #E66A3A",
". c #FFAD5D",
/* pixels */
". .... ..... ...",
". .... ..... ...",
". .... ..... ...",
". .... ..... ...",
". .. . ..... ...",
". .. . ..... ...",
".      ..... ...",
". .... ..... ...",
". .... ..... ...",
". .... ..... ...",
". ....       ...",
". .... . ... ...",
". .... . ... ...",
". .... . ... ...",
". .... ..... ...",
". .... ..... ..."
};
