/* XPM */
static char *result[] = {
/* columns rows colors chars-per-pixel */
"158 75 26 1 ",
"  c black",
". c #141013",
"X c #221C1A",
"o c #3B1725",
"O c #122020",
"+ c #322B28",
"@ c #242234",
"# c #422433",
"$ c #423934",
"% c #5B3138",
"& c #24523B",
"* c #71413B",
"= c #333941",
"- c #403353",
"; c #23674E",
": c #5A4E44",
"> c #4A5462",
", c #FA6A0A",
"< c #8E5252",
"1 c #BB7547",
"2 c #328464",
"3 c #F9A31B",
"4 c #FFD541",
"5 c #FFFC40",
"6 c white",
"7 c None",
/* pixels */
"77777777777777777777777777777777777777777777777777777777777777777777777777777777777777777777777777777777777777777777777777777777777777777777777777777777777777",
"77777777777777777777777777777777777777777777777777777777777777777777777777777777777777777777777777777777777777777777777777777777777777777777777777777777777777",
"77777777777777777777777777777777777777777777777777777777777777777777777777777777777777777777777777777777777777777777777777777777777777777777777777777777777777",
"77777777777777777777777777777777777777777777777777777777777777777777777777777777777777777777777777777777777777777777777777777777777777777777777777777777777777",
"77777777777777777777777777777777777777777777777777777777777777777777777777777777777777777777777777777777777777777777777777777777777777777777777777777777777777",
"77777777777777777777777777777777777777777777777777777777777777777777777777777777777777777777777777777777777777777777777777777777777777777777777777777777777777",
"7777777777777777777777777777777777777777777777777777777777777777777                               777777777777777777777777777777777777777777777777777777777777",
"7777777777777777777777777777777777777777777777777777777777777777   <%%%%%%%%%%%%%%%%%%%%%%%%%%%%%< 77777777777777777777777777777777777777777777777777777777777",
"777777777777777777777777777777777777777777777777777777777777777 <<%%                             %< 7777777777777777777777777777777777777777777777777777777777",
"77777777777777777777777777777777777777777777777777777777777777 <%#  %%%%%%%5555333333344444444%3% %< 777777777777777777777777777777777777777777777777777777777",
"77777777777777777777777777777777777777777777777777777777777777 <% %%#                          #3% % 777777777777777777777777777777777777777777777777777777777",
"7777777777777777777777777777777777777777777777777777777777777 <%# ## XXXXXXXXXXXXXXXXXXXXXXXXXX #4 %< 77777777777777777777777777777777777777777777777777777777",
"7777777777777777777777777777777777777777777777777777777777777 <# %  @@@@@@@@@@@@@@@@XXXXXXX----- 44 % 77777777777777777777777777777777777777777777777777777777",
"7777777777777777777777777777777777777777777777777777777777777 <# % @@@@@@@@@@XXXXXXX--------@@@@@ 3 %< 7777777777777777777777777777777777777777777777777777777",
"7777777777777777777777777777777777                    777777 <% %# @@@XXXXXXX--------@@@@@@@@XXXX 43 % 7777777777777777777777777777777777777777777777777777777",
"777777777777777777777777777777777 222222;;;;;;&&&&&&2&  7777 <% % XXXX--------@@@@@@@XXXXXXXX----@ 4 % 7777777777777777777777777777777777777777777777777777777",
"777777777777777777777777777777777 222;;;;;;OO;;&&&&&2&;; 777 <% % -----@@@@@@@XXXXXXX--------@@@@@ 44%< 777777777777777777777777777777777777777777777777777777",
"777777777777777777777777777777777 2;;;&&&&&&&OO&&&&&&;;;; 77 % %# @@@@XXXXXXXX-------@@@@@@@@@@@@@ 55 % 777777777777777777777777777777777777777777777777777777",
"77777777777777777777777777777777 2;;;O;;&&&&&&&2222O22;;;;  <% %3 XXXX--------@@@@@@@@@@@@@@@@XXXX- 5 % 777777777777777777777777777777777777777777777777777777",
"77777777777777777777777777777777 2;;O&O;;;OO222;;;;;;;;;;;; <% %3 ----@@@@@@@@@@@@@@@@@@XXXXXX----- 4 %< 77777777777777777777777777777777777777777777777777777",
"77777777777777777777777777777777 2;;O&&OO;;;;;;;;OOOOOO&&&; <% %3 @@@@@@@@@@@@@@@@XXXXXX----------- 54 % 77777777777777777777777777777777777777777777777777777",
"7777777777777777777777777777777 2;;;O&&&2O;;;;;;OO&&&&&&&&& <% 44 @@@@@@@@@@XXXXXX-------------XXXX #4 % 77777777777777777777777777777777777777777777777777777",
"777777777777777777777777777    22;;O&&22;;;OOOOO&;&&&&&&&; <%# 33 @@@@XXXXXX-----------XXXXXXXX@@@@@ 5 %< 7777777777777777777777777777777777777777777777777777",
"77777777777777777777777777 222;;;;&&22;;;;;;;;;;;;;222&;;; <%# 35 XXXX---------XXXXXXXX@@@@@@@@@@@@@ 5% % 7777777777777777777777777777777777777777777777777777",
"7777777777777777777777777 2;;;;&&&&2;;;;OO;;&&O&&&&&&&;;&O <%# 43 X----XXXXXXXX@@@@@@@@@@@@@@@@@@@@@ #% %< 777777777777777777777777777777777777777777777777777",
"777777777777777777777777 22;;OOO&22;;;OO&&&OOO&&&&&&;;;&&O <%# 43# XXXX@@@@@@@@@@@@@@@@@@@@@@@@@@@@@ 35 %<< 77777777777777777777777777777777777777777777777777",
"77777777777777777777777 22;;O&&&2;;;OO&&&OOO&&&&&;;;;OO&O <%### 55 @@@@@@@@@@@@@@@@@@@@@@@@@@@@@@@@@ 3% %%%<     777777777777777777777777777777777777777777777",
"7777777777777777777777 22;;OO&&&;;OO&&&&&&&&&&;;;;OOO&&OO <%##o #34 @@@@@@@@@@@@@@@@@@@@@@@@@@@@@@@ 33% %%%%<         7777777777777777777777777777777777777777",
"7777777777777777777777 2;OOOOO&&OO&&&&&&&&;;;;;OO&&&&OOO  <%#oo o554                               344#% %%%%%%<<            777777777777777777777777777777777",
"7777777       77777777 OOOOOOOOOOOO&&&;;;;;OOO&&OOOOOOOO <%#ooo oo55444433333##############5555553334### ####%%%%%%<<<<,            77777777777777777777777777",
"777777 + + + + 77777                                                                                     oo#######%%%%%3<<<<<    <<<       7777777777777777777",
"77777  .   X .      <<<<<<<<<<<<<<<<<<<<<<<<<<<<<<<<<<<<<<<<<<< ####555555555555555555555555<<<<<<<<<<<< ############%%4%%%<<<<<<     <<<<<   7777777777777777",
"77777 + +X X+ X  <<<%%%%%%%%%%%%%%%%%%%%%%%%%%%%%%%%%%%%%%%%%%% #%33333333333333333333333333333333333333 %%%%%%%%%%%%%%6%%%%%%<<<<<<<<     <<<  77777777777777",
"77777 .X X   X. <<%                                             #%333333##                           333              666    ,                << 7777777777777",
"77777  .   X .  <% <<<<<<<<<<<<<<<<<<<<<<<<<<<<<<<<<<<<<<<<<<<<< %333444  *************************** 33 %%%%%%%%%%%66%6%66%3%%%%%%%%%%<<<<<<< << 777777777777",
"77777 + +X X+ X % %%%%%%%%%%%%%%%%%%%%%%%%%%%%%%%%%%%%%%%%%%%%%% 333444 *****     ********###########* 3 %%%%%%%%%%6%%%6%%%4%%%%%%%%%%%%%%<<<<< < 777777777777",
"77777 .X X   X.   %%##########%%%%%%%%%%%%%%%%%%%%%%%%%%%%%%%%%< %34444 ***  $$$$$  **#               333 ###########....#6#6#############%<<<<<  777777777777",
"77777  .   + .  4 %##############################********##**%%< 334444 ** $$     $ *# oo3333o44444444433 ###########.o6o..%6##########*%%%%    = 777777777777",
"77777 X XX XX X 3 %##########################################*%< 334444 **   $$$$$  ## oo3oo4444444444433 ############...%%#######   ###*%% =XXXX 777777777777",
"77777 .X +   X. 3 %##########################################*%%< 344444 ****     ### o334444444444444433 ###########4###6####### 334 ##*%% XX   4 77777777777",
"77777  .   X .  , %#####%%%%%%%%%%%%%%%######################*%%< 3444444   ***##### o3344444444444444433 %#########3#####6######o   ####*% X ,344 77777777777",
"77777 X XX XX X   %###%%%%            %%%%%##################*%%< 3444444444        ooo444444444444444*33 %########,#66666#4#############*% XX 334 77777777777",
"77777 XX X   XX * 1##%%%  %%%%%%%%%%%%     %%################*%%< 33*44444433333333oo44444444444444444*33 %%################,###%%%%%#####%* X ,34 77777777777",
"77777 .X X X X. * %##%  %%%          %%%%%%  %%###############*%< 33*44444444oooooo4444444444444444444*33 %%####%                    %%####%  X ,3  7777777777",
"77777  .   X .  * %#% %%%  ===+++++==     %%% %%%#############*%%< 3*444444444444444444444444444444444*33 %####  %%%%%%%%%%%%%%%%%%%% %%###% X X   = 777777777",
"77777 X XX XX X o %% %%  =+++XXXXXXXX+++==  %< %%%#########%%#*%%< 33*44444444444444444444444444444444*33 #### %%%%                 %% %%###% X XX = 777777777",
"77777 .X X   X. o % %% =+XXXXXX     XXXXXX+= %% %%%#########%##%%< 33*44444444444444444444444444444444*33 ### %%%  +XXXXXXXXXXXXXXX+ % %%###% =X   = 777777777",
"77777  .   X .  *  %% =XXXX+     XXX     XX++ %% *%%#########%#%%< 33*44444444444%%4444444444444444444*33 ## %%% =X                =X % %%##% XXX == 777777777",
"77777 X XX XX X  %%% =XXXX  ... ::   .... XX+= %% *%#########%##%<< 3*4444444444444%%4444444444444444*333 # %%% X  ......  :++ ....  X  %%##% =X =X= 777777777",
"77777 .X X   X. %%o =XXXX ..... XX:X ..... X++= %% %%###########%%< 33444444444444444%%44444444444444*333 # %% X ........ ++:  ...... X= %%%##  =XXX 777777777",
"77777 X.   X .X %% =+XXX ......  XX  ...... XX++ %% %%##########%%< 3344444444444444444%%444444444444*33 # %% X .........  XXX ....... X      ==XXXX 777777777",
"777777 X X X X  %o +XXX ....... X       .... XX+= %% %##########%%<< 34444444444444444444444444444444*33 # % = ..........        ..... X >===+XXXXX+ 777777777",
"7777777       7 % =+XX ........  XXXXXXX  ... XX+= % %###########%%< 33444444444444444444444444444444333 # % X .........  XXXXXXX  .... XXXXXXXXXX+ 7777777777",
"7777777777777  %o +XXX ......  X         X  .. XX= %% ###########%%< 3334444444444444444444444444444433 % % = ........  X         X  .. XXXXXXXXX+ 77777777777",
"777777777777 %%% ++XX 7 .... X  ........:  X .. X+= % %###########%%< 33344444444444444444444444#444333 % o X ....... X  ........:  X .. ++++++++ 777777777777",
"777777777777 %%o +XXX 77 .. X ....     .... X . XX+ % %###########%%< #33333444444444444444444##444333 %%  = ....... X ....     .... X ..        7777777777777",
"777777777777 %%o +XXX 777  X ...  XXXXX  ... X . X+ % %############%<< 3333333333334444443334444333333 % % X ...... X ...  XXXXX  ... X  777777777777777777777",
"777777777777 %%o +XX 77777  ... XXXX XXXX ...  . X+ % %%###########%%< #33333333333333333333333333333 %% o X ......  ... XXXX XXXX ...  7777777777777777777777",
"777777777777 %oo +XX 7777 X .. XXXX . XXXX .. X  XX o #%######%#%###%%< #3,,,,,,,,33333,,,,,33333333 %% % X ...... X .. XXXX . XXXX .. X 777777777777777777777",
"7777777777777 oo XXX 7777  .. XXXXX . XXXXX ..  . X o %%%###%%%%%%%#%%%< ##3,,,,,,,,,,,,,,,,,,,,,,, %%  o X .X....  .. XXXXX . XXXXX ..  777777777777777777777",
"7777777777777 oo X  7777 X .. XXXXXX XXXXXX .. X  X o #%%###########%%%%<                          %%% o X XXX... X .. XXXXXX XXXXXX .. X 77777777777777777777",
"77777777777777    777777 X . XXXXXX   XXXXXX . X  X oo ####***%%%%%%%%%%%##*##%%<<<<%%*********####oo*  X XXXX... X . XXXXXX   XXXXXX . X 77777777777777777777",
"777777777777777777777777 X . XX  X ... X  XX . X X                                                       XXXXXX.. X . XX  X ... X  XX . X 77777777777777777777",
"777777777777777777777777 X . X ..  ...  .. X . X XXXXXXXXXXXXXXXXXXXXXXXXXXXXXXXXXXXXXXXXXXXXXXXXXXXXXXXXXXXXXX.. X . X ..  ...  .. X . X 77777777777777777777",
"777777777777777777777777 X . XX  X ... X  XX . X                                                                  X . XX  X ... X  XX . X 77777777777777777777",
"777777777777777777777777 X . XXXXXX   XXXXXX . X 7777777777777777777777777777777777777777777777777777777777777777 X . XXXXXX   XXXXXX . X 77777777777777777777",
"777777777777777777777777 X .. XXXXXX XXXXXX .. X 7777777777777777777777777777777777777777777777777777777777777777 X .. XXXXXX XXXXXX .. X 77777777777777777777",
"7777777777777777777777777  .. XXXXX . XXXXX ..  777777777777777777777777777777777777777777777777777777777777777777  .. XXXXX . XXXXX ..  777777777777777777777",
"7777777777777777777777777 X .. XXXX . XXXX .. X 777777777777777777777777777777777777777777777777777777777777777777 X .. XXXX . XXXX .. X 777777777777777777777",
"77777777777777777777777777  ... XXXX XXXX ...  77777777777777777777777777777777777777777777777777777777777777777777  ... XXXX XXXX ...  7777777777777777777777",
"77777777777777777777777777 X ...  XXXXX  ... X 77777777777777777777777777777777777777777777777777777777777777777777 X ...  XXXXX  ... X 7777777777777777777777",
"777777777777777777777777777 X ....     .... X 7777777777777777777777777777777777777777777777777777777777777777777777 X ....     .... X 77777777777777777777777",
"7777777777777777777777777777 X  .........  X 777777777777777777777777777777777777777777777777777777777777777777777777 X  .........  X 777777777777777777777777",
"77777777777777777777777777777  X         X  77777777777777777777777777777777777777777777777777777777777777777777777777  X         X  7777777777777777777777777",
"777777777777777777777777777777   XXXXXXX   7777777777777777777777777777777777777777777777777777777777777777777777777777   XXXXXXX   77777777777777777777777777"
};
